<?xml version="1.0" encoding="iso-8859-1"?>
<!-- Generator: Adobe Illustrator 16.0.0, SVG Export Plug-In . SVG Version: 6.00 Build 0)  -->
<!DOCTYPE svg PUBLIC "-//W3C//DTD SVG 1.1//EN" "http://www.w3.org/Graphics/SVG/1.1/DTD/svg11.dtd">
<svg version="1.1" id="Layer_1" xmlns="http://www.w3.org/2000/svg" xmlns:xlink="http://www.w3.org/1999/xlink" x="0px" y="0px"
	 width="765.186px" height="516px" viewBox="0 0 765.186 516" style="enable-background:new 0 0 765.186 516;" xml:space="preserve"
	>
<polyline style="fill:#E6E7E8;stroke:#000000;stroke-width:10;stroke-miterlimit:10;" points="746.593,254.385 746.593,16.886 
	18.593,16.886 18.593,493.885 746.593,493.885 746.593,332.885 "/>
<g>
	<rect x="675" y="251.499" style="fill:none;stroke:#000000;stroke-miterlimit:10;" width="76.101" height="4.29"/>
	<path style="fill:none;stroke:#000000;stroke-width:2;stroke-miterlimit:10;" d="M675,255.789c0,0,10.328,79.586,75.285,78.733"/>
</g>
<g>
	<rect x="333.279" y="250.901" style="fill:none;stroke:#000000;stroke-miterlimit:10;" width="3.351" height="61.274"/>
	<path style="fill:none;stroke:#000000;stroke-width:2;stroke-miterlimit:10;" d="M333.279,312.175c0,0-62.167-8.316-61.501-60.618"
		/>
</g>
<g>
	<rect x="212.498" y="234.47" style="fill:none;stroke:#000000;stroke-miterlimit:10;" width="61.274" height="3.351"/>
	<path style="fill:none;stroke:#000000;stroke-width:2;stroke-miterlimit:10;" d="M212.498,234.47c0,0,8.316-62.168,60.618-61.502"
		/>
</g>
<g>
	<rect x="397.439" y="107.672" style="fill:none;stroke:#000000;stroke-miterlimit:10;" width="3.351" height="61.275"/>
	<path style="fill:none;stroke:#000000;stroke-width:2;stroke-miterlimit:10;" d="M462.292,168.291
		c0.665-52.303-61.502-60.619-61.502-60.619"/>
</g>
<line style="fill:#FFFFFF;stroke:#000000;stroke-width:10;stroke-miterlimit:10;" x1="18.593" y1="253.499" x2="275.871" y2="253.499"/>
<line style="fill:#FFFFFF;stroke:#000000;stroke-width:10;stroke-miterlimit:10;" x1="272" y1="16.886" x2="272" y2="38"/>
<line style="fill:#FFFFFF;stroke:#000000;stroke-width:10;stroke-miterlimit:10;" x1="272" y1="150" x2="272" y2="173.963"/>
<line style="fill:#FFFFFF;stroke:#000000;stroke-width:10;stroke-miterlimit:10;" x1="272" y1="257.71" x2="272" y2="234.47"/>
<line style="fill:#FFFFFF;stroke:#000000;stroke-width:10;stroke-miterlimit:10;" x1="327" y1="16.886" x2="327" y2="164.291"/>
<line style="fill:#FFFFFF;stroke:#000000;stroke-width:10;stroke-miterlimit:10;" x1="522" y1="16.886" x2="522" y2="160.981"/>
<line style="fill:#FFFFFF;stroke:#000000;stroke-width:10;stroke-miterlimit:10;" x1="397.439" y1="164.947" x2="275.772" y2="164.947"/>
<path style="fill:#FFFFFF;stroke:#000000;stroke-width:2;stroke-miterlimit:10;" d="M579,164.291"/>
<path style="fill:#FFFFFF;stroke:#000000;stroke-width:2;stroke-miterlimit:10;" d="M579,164.291"/>
<line style="fill:#FFFFFF;stroke:#000000;stroke-width:10;stroke-miterlimit:10;" x1="462" y1="164.947" x2="587" y2="164.947"/>
<line style="stroke:#000000;stroke-width:10;stroke-miterlimit:10;" x1="455" y1="250.901" x2="478" y2="250.901"/>
<line style="stroke:#000000;stroke-width:10;stroke-miterlimit:10;" x1="474" y1="331" x2="474" y2="245.901"/>
<polyline style="fill:none;stroke:#000000;stroke-width:10;stroke-miterlimit:10;" points="478,326.588 350,326.588 350,247.145 
	370,247.145 "/>
<rect x="10.593" y="61.981" style="fill:#FFFFFF;stroke:#000000;stroke-width:3;stroke-miterlimit:10;" width="14" height="116.019"/>
<rect x="98.479" y="485.887" style="fill:#FFFFFF;stroke:#000000;stroke-width:3;stroke-miterlimit:10;" width="116.019" height="14"/>
<rect x="520.991" y="485.887" style="fill:#FFFFFF;stroke:#000000;stroke-width:3;stroke-miterlimit:10;" width="116.019" height="14"/>
<rect x="464.5" y="85" style="fill:#FFFFFF;stroke:#000000;stroke-width:2;stroke-miterlimit:10;" width="51.5" height="76.582"/>
<ellipse style="fill:#FFFFFF;stroke:#000000;stroke-width:2;stroke-miterlimit:10;" cx="490.25" cy="123.991" rx="16" ry="26.5"/>
<path style="fill:#FFFFFF;stroke:#000000;stroke-width:2;stroke-miterlimit:10;" d="M513.25,64.572c0,7.416-4.477,13.428-10,13.428
	l0,0c-5.523,0-10-6.012-10-13.428V44.428c0-7.416,4.477-13.428,10-13.428l0,0c5.523,0,10,6.012,10,13.428V64.572z"/>
<ellipse style="fill:#FFFFFF;stroke:#000000;stroke-width:2;stroke-miterlimit:10;" cx="471.5" cy="54.5" rx="17.5" ry="14"/>
<path style="fill:#FFFFFF;stroke:#000000;stroke-width:2;stroke-miterlimit:10;" d="M388,138.491c0,6.627-5.373,12-12,12h-25.046
	c-6.627,0-12-5.373-12-12V43c0-6.627,5.373-12,12-12H376c6.627,0,12,5.373,12,12V138.491z"/>
<line style="fill:#FFFFFF;stroke:#000000;stroke-width:10;stroke-miterlimit:10;" x1="410" y1="326.588" x2="410" y2="492.887"/>
<g>
	<line style="fill:#FFFFFF;stroke:#000000;stroke-width:2;stroke-miterlimit:10;" x1="530.5" y1="26" x2="573" y2="26"/>
	<line style="fill:#FFFFFF;stroke:#000000;stroke-width:2;stroke-miterlimit:10;" x1="530.5" y1="34" x2="573" y2="34"/>
	<line style="fill:#FFFFFF;stroke:#000000;stroke-width:2;stroke-miterlimit:10;" x1="530.5" y1="41" x2="573" y2="41"/>
	<line style="fill:#FFFFFF;stroke:#000000;stroke-width:2;stroke-miterlimit:10;" x1="530.5" y1="48" x2="573" y2="48"/>
	<line style="fill:#FFFFFF;stroke:#000000;stroke-width:2;stroke-miterlimit:10;" x1="530.5" y1="55" x2="573" y2="55"/>
	<line style="fill:#FFFFFF;stroke:#000000;stroke-width:2;stroke-miterlimit:10;" x1="530.5" y1="62" x2="573" y2="62"/>
	<line style="fill:#FFFFFF;stroke:#000000;stroke-width:2;stroke-miterlimit:10;" x1="530.5" y1="69" x2="573" y2="69"/>
	<line style="fill:#FFFFFF;stroke:#000000;stroke-width:2;stroke-miterlimit:10;" x1="530.5" y1="76" x2="573" y2="76"/>
	<line style="fill:#FFFFFF;stroke:#000000;stroke-width:2;stroke-miterlimit:10;" x1="530.5" y1="83" x2="573" y2="83"/>
	<line style="fill:#FFFFFF;stroke:#000000;stroke-width:2;stroke-miterlimit:10;" x1="530.5" y1="91" x2="573" y2="91"/>
	<line style="fill:#FFFFFF;stroke:#000000;stroke-width:2;stroke-miterlimit:10;" x1="530.5" y1="98" x2="573" y2="98"/>
	<line style="fill:#FFFFFF;stroke:#000000;stroke-width:2;stroke-miterlimit:10;" x1="530.5" y1="105" x2="573" y2="105"/>
	<line style="fill:#FFFFFF;stroke:#000000;stroke-width:2;stroke-miterlimit:10;" x1="530" y1="103.5" x2="530" y2="26.5"/>
	<line style="fill:#FFFFFF;stroke:#000000;stroke-width:2;stroke-miterlimit:10;" x1="538" y1="103.5" x2="538" y2="26.5"/>
	<line style="fill:#FFFFFF;stroke:#000000;stroke-width:2;stroke-miterlimit:10;" x1="545" y1="103.5" x2="545" y2="26.5"/>
	<line style="fill:#FFFFFF;stroke:#000000;stroke-width:2;stroke-miterlimit:10;" x1="552" y1="103.5" x2="552" y2="26.5"/>
	<line style="fill:#FFFFFF;stroke:#000000;stroke-width:2;stroke-miterlimit:10;" x1="559" y1="103.5" x2="559" y2="26.5"/>
	<line style="fill:#FFFFFF;stroke:#000000;stroke-width:2;stroke-miterlimit:10;" x1="566" y1="103.5" x2="566" y2="26.5"/>
	<line style="fill:#FFFFFF;stroke:#000000;stroke-width:2;stroke-miterlimit:10;" x1="573" y1="103.5" x2="573" y2="26.5"/>
</g>
<g>
	<line style="fill:#FFFFFF;stroke:#000000;stroke-width:2;stroke-miterlimit:10;" x1="656" y1="26.5" x2="656" y2="69"/>
	<line style="fill:#FFFFFF;stroke:#000000;stroke-width:2;stroke-miterlimit:10;" x1="648" y1="26.5" x2="648" y2="69"/>
	<line style="fill:#FFFFFF;stroke:#000000;stroke-width:2;stroke-miterlimit:10;" x1="641" y1="26.5" x2="641" y2="69"/>
	<line style="fill:#FFFFFF;stroke:#000000;stroke-width:2;stroke-miterlimit:10;" x1="634" y1="26.5" x2="634" y2="69"/>
	<line style="fill:#FFFFFF;stroke:#000000;stroke-width:2;stroke-miterlimit:10;" x1="627" y1="26.5" x2="627" y2="69"/>
	<line style="fill:#FFFFFF;stroke:#000000;stroke-width:2;stroke-miterlimit:10;" x1="620" y1="26.5" x2="620" y2="69"/>
	<line style="fill:#FFFFFF;stroke:#000000;stroke-width:2;stroke-miterlimit:10;" x1="613" y1="26.5" x2="613" y2="69"/>
	<line style="fill:#FFFFFF;stroke:#000000;stroke-width:2;stroke-miterlimit:10;" x1="606" y1="26.5" x2="606" y2="69"/>
	<line style="fill:#FFFFFF;stroke:#000000;stroke-width:2;stroke-miterlimit:10;" x1="599" y1="26.5" x2="599" y2="69"/>
	<line style="fill:#FFFFFF;stroke:#000000;stroke-width:2;stroke-miterlimit:10;" x1="591" y1="26.5" x2="591" y2="69"/>
	<line style="fill:#FFFFFF;stroke:#000000;stroke-width:2;stroke-miterlimit:10;" x1="584" y1="26.5" x2="584" y2="69"/>
	<line style="fill:#FFFFFF;stroke:#000000;stroke-width:2;stroke-miterlimit:10;" x1="577" y1="26.5" x2="577" y2="69"/>
	<line style="fill:#FFFFFF;stroke:#000000;stroke-width:2;stroke-miterlimit:10;" x1="578.5" y1="26" x2="655.5" y2="26"/>
	<line style="fill:#FFFFFF;stroke:#000000;stroke-width:2;stroke-miterlimit:10;" x1="578.5" y1="34" x2="655.5" y2="34"/>
	<line style="fill:#FFFFFF;stroke:#000000;stroke-width:2;stroke-miterlimit:10;" x1="578.5" y1="41" x2="655.5" y2="41"/>
	<line style="fill:#FFFFFF;stroke:#000000;stroke-width:2;stroke-miterlimit:10;" x1="578.5" y1="48" x2="655.5" y2="48"/>
	<line style="fill:#FFFFFF;stroke:#000000;stroke-width:2;stroke-miterlimit:10;" x1="578.5" y1="55" x2="655.5" y2="55"/>
	<line style="fill:#FFFFFF;stroke:#000000;stroke-width:2;stroke-miterlimit:10;" x1="578.5" y1="62" x2="655.5" y2="62"/>
	<line style="fill:#FFFFFF;stroke:#000000;stroke-width:2;stroke-miterlimit:10;" x1="578.5" y1="69" x2="655.5" y2="69"/>
</g>
<rect x="683" y="26" style="fill:#FFFFFF;stroke:#000000;stroke-width:2;stroke-miterlimit:10;" width="50" height="50"/>
<rect x="529.5" y="108" style="fill:#FFFFFF;stroke:#000000;stroke-width:2;stroke-miterlimit:10;" width="50" height="50"/>
<g>
	<circle style="fill:#FFFFFF;stroke:#000000;stroke-width:2;stroke-miterlimit:10;" cx="545.975" cy="123.217" r="7.525"/>
	<circle style="fill:#FFFFFF;stroke:#000000;stroke-width:2;stroke-miterlimit:10;" cx="545.139" cy="142.611" r="7.525"/>
	<circle style="fill:#FFFFFF;stroke:#000000;stroke-width:2;stroke-miterlimit:10;" cx="563.861" cy="123.389" r="7.525"/>
	<circle style="fill:#FFFFFF;stroke:#000000;stroke-width:2;stroke-miterlimit:10;" cx="563.025" cy="142.783" r="7.525"/>
</g>
<path style="fill:#FFFFFF;stroke:#000000;stroke-width:2;stroke-miterlimit:10;" d="M638.361,47.597c0,5.347-5.373,9.682-12,9.682
	h-12.723c-6.627,0-12-4.334-12-9.682v-5.694c0-5.347,5.373-9.682,12-9.682h12.723c6.627,0,12,4.334,12,9.682V47.597z"/>
<line style="fill:#FFFFFF;stroke:#000000;stroke-width:10;stroke-miterlimit:10;" x1="332.954" y1="247.09" x2="363.5" y2="247.09"/>
<g>
</g>
<g>
</g>
<g>
</g>
<g>
</g>
<g>
</g>
<g>
</g>
</svg>
